HIERARCHY
ROOT Hips
{
	OFFSET	0.00	0.00	0.00
	CHANNELS 6 Xposition Yposition Zposition Zrotation Xrotation Yrotation
	JOINT LeftUpLeg
	{
		OFFSET	 0.126116	-0.014019	-0.065224
		CHANNELS 3 Zrotation Xrotation Yrotation
		JOINT LeftLeg
		{
			OFFSET	 0.000000	 0.000000	 0.569914
			CHANNELS 3 Zrotation Xrotation Yrotation
			JOINT LeftFoot
			{
				OFFSET	 0.000000	 0.000000	 0.544423
				CHANNELS 3 Zrotation Xrotation Yrotation
				JOINT LeftToeBase
				{
					OFFSET	 0.000000	 0.000000	 0.207117
					CHANNELS 3 Zrotation Xrotation Yrotation
					End Site
					{
						OFFSET	 0.000000	 0.000000	 0.207117
					}
				}
			}
		}
	}
	JOINT RightUpLeg
	{
		OFFSET	-0.124023	-0.008373	-0.065224
		CHANNELS 3 Zrotation Xrotation Yrotation
		JOINT RightLeg
		{
			OFFSET	 0.000000	 0.000000	 0.570047
			CHANNELS 3 Zrotation Xrotation Yrotation
			JOINT RightFoot
			{
				OFFSET	 0.000000	 0.000000	 0.544354
				CHANNELS 3 Zrotation Xrotation Yrotation
				JOINT RightToeBase
				{
					OFFSET	 0.000000	 0.000000	 0.207540
					CHANNELS 3 Zrotation Xrotation Yrotation
					End Site
					{
						OFFSET	 0.000000	 0.000000	 0.207540
					}
				}
			}
		}
	}
	JOINT Spine
	{
		OFFSET	 0.000184	-0.007763	 0.117403
		CHANNELS 3 Zrotation Xrotation Yrotation
		JOINT Spine1
		{
			OFFSET	 0.000000	 0.000000	 0.137269
			CHANNELS 3 Zrotation Xrotation Yrotation
			JOINT Spine2
			{
				OFFSET	 0.000000	 0.000000	 0.156879
				CHANNELS 3 Zrotation Xrotation Yrotation
				JOINT LeftShoulder
				{
					OFFSET	 0.080501	-0.002496	 0.160144
					CHANNELS 3 Zrotation Xrotation Yrotation
					JOINT LeftArm
					{
						OFFSET	 0.000000	 0.000000	 0.164363
						CHANNELS 3 Zrotation Xrotation Yrotation
						JOINT LeftForeArm
						{
							OFFSET	 0.000000	 0.000000	 0.364576
							CHANNELS 3 Zrotation Xrotation Yrotation
							JOINT LeftHand
							{
								OFFSET	 0.000000	 0.000000	 0.360812
								CHANNELS 3 Zrotation Xrotation Yrotation
								JOINT LeftHandIndex1
								{
									OFFSET	 0.000000	 0.000000	 0.086006
									CHANNELS 3 Zrotation Xrotation Yrotation
									JOINT LeftHandIndex2
									{
										OFFSET	 0.000000	 0.000000	 0.047237
										CHANNELS 3 Zrotation Xrotation Yrotation
										JOINT LeftHandIndex3
										{
											OFFSET	-0.004284	-0.000551	 0.038165
											CHANNELS 3 Zrotation Xrotation Yrotation
											End Site
											{
												OFFSET	-0.004284	-0.000551	 0.038165
											}
										}
									}
								}
							}
						}
					}
				}
				JOINT Neck
				{
					OFFSET	 0.000000	 0.000000	 0.176489
					CHANNELS 3 Zrotation Xrotation Yrotation
					JOINT Head
					{
						OFFSET	 0.000000	-0.001747	 0.077940
						CHANNELS 3 Zrotation Xrotation Yrotation
						End Site
						{
							OFFSET	 0.000000	-0.001747	 0.077940
						}
					}
				}
				JOINT RightShoulder
				{
					OFFSET	-0.080363	 0.000306	 0.159706
					CHANNELS 3 Zrotation Xrotation Yrotation
					JOINT RightArm
					{
						OFFSET	 0.000000	 0.000000	 0.164196
						CHANNELS 3 Zrotation Xrotation Yrotation
						JOINT RightForeArm
						{
							OFFSET	 0.000000	 0.000000	 0.365611
							CHANNELS 3 Zrotation Xrotation Yrotation
							JOINT RightHand
							{
								OFFSET	 0.000000	 0.000000	 0.360648
								CHANNELS 3 Zrotation Xrotation Yrotation
								JOINT RightHandIndex1
								{
									OFFSET	 0.000000	 0.000000	 0.069977
									CHANNELS 3 Zrotation Xrotation Yrotation
									JOINT RightHandIndex2
									{
										OFFSET	 0.000000	 0.000000	 0.052305
										CHANNELS 3 Zrotation Xrotation Yrotation
										JOINT RightHandIndex3
										{
											OFFSET	 0.009002	-0.000782	 0.042196
											CHANNELS 3 Zrotation Xrotation Yrotation
											End Site
											{
												OFFSET	 0.009002	-0.000782	 0.042196
											}
										}
									}
								}
							}
						}
					}
				}
			}
		}
	}
}
MOTION
Frames:    6
Frame Time: 0.03333334
-0.720285	-0.006126	 1.272618	-177.093700	-5.628076	 0.253140	-1.414498	 4.872574	 179.812000	-4.068473	-9.865262	-0.950697	-0.202576	 72.301900	-9.511672	-2.385833	 28.452760	 0.000004	 1.920300	 4.246305	 178.708600	 1.990028	-11.960280	 0.458300	-3.341175	 73.215850	 10.217340	 2.384659	 28.388700	-0.000001	 0.391689	 6.231372	-2.233370	 1.288567	 11.742350	 5.972914	-6.009304	-9.863208	-6.601632	-91.776150	 78.527400	 180.000000	-8.547974	-3.733348	 0.891997	-13.887240	-2.034690	-24.263160	 0.131507	-16.943920	-2.331223	-4.130354	 21.526190	 0.991307	-5.167926	 0.731697	 3.519349	-1.378229	 35.397820	-2.634230	-8.005713	 0.934638	 3.416393	-5.439767	-16.622040	-4.572274	 89.782070	 78.203900	-180.000000	 21.585720	-6.802048	 4.375319	 7.241502	-1.678369	 19.781810	 27.284330	 46.128820	 11.608260	 5.716295	 19.173350	-3.684826	 5.027458	 0.246833	-9.377971	-2.350882	 35.473990	 5.254307
-0.720167	-0.006134	 1.272633	-176.994300	-5.787502	 0.262136	-0.838721	 5.044567	 179.687500	-4.432990	-9.848643	-1.012067	 0.684584	 71.915450	-10.068560	-2.385833	 28.452760	 0.000004	 1.619599	 4.482273	 178.738400	 2.256696	-11.896480	 0.510951	-3.544861	 72.736600	 10.191300	 2.384659	 28.388700	-0.000001	 0.365915	 6.336044	-2.314455	 1.311867	 12.013030	 6.172101	-6.228388	-10.133760	-6.846451	-91.776140	 78.527360	 180.000000	-8.559790	-3.230089	 1.631040	-14.102520	-2.078881	-25.814830	-0.256562	-17.300440	-2.328306	-4.130354	 21.526190	 0.991307	-5.167926	 0.731697	 3.519349	-1.378229	 35.397820	-2.634230	-8.223228	 1.037670	 3.584808	-5.622905	-16.863860	-4.813130	 89.782160	 78.203890	 179.999900	 22.320950	-6.352070	 3.788105	 7.505723	-1.724709	 21.401290	 29.842150	 47.242850	 9.541600	 5.716295	 19.173350	-3.684826	 5.027458	 0.246833	-9.377971	-2.350882	 35.473990	 5.254307
-0.720046	-0.006145	 1.272645	-176.890900	-5.957661	 0.270552	-0.236316	 5.184931	 179.554700	-4.815440	-9.919423	-1.085873	 1.591593	 71.560300	-10.632830	-2.385833	 28.452760	 0.000004	 1.303834	 4.736400	 178.773100	 2.535316	-11.827200	 0.565239	-3.768206	 72.237240	 10.174710	 2.384659	 28.388700	-0.000001	 0.335796	 6.454199	-2.395106	 1.333765	 12.285740	 6.374016	-6.458519	-10.412460	-7.100371	-91.776190	 78.527420	-180.000000	-8.556596	-2.669711	 2.446846	-14.329640	-2.120553	-27.524700	-0.660640	-17.678540	-2.328439	-4.130354	 21.526190	 0.991307	-5.167926	 0.731697	 3.519349	-1.378229	 35.397820	-2.634230	-8.451291	 1.144228	 3.762092	-5.815992	-17.115370	-5.068279	 89.782070	 78.203830	-180.000000	 23.137960	-5.833562	 3.142656	 7.782924	-1.764849	 23.179890	 32.750380	 48.256310	 7.122808	 5.716295	 19.173350	-3.684826	 5.027458	 0.246833	-9.377971	-2.350882	 35.473990	 5.254307
-0.719819	-0.006167	 1.272653	-176.694700	-6.280750	 0.283025	 0.906671	 5.429629	 179.292900	-5.540939	-10.098210	-1.234116	 3.290201	 70.920230	-11.689370	-2.385833	 28.452760	 0.000004	 0.700142	 5.185425	 178.849900	 3.063806	-11.781310	 0.671269	-4.218341	 71.344180	 10.172480	 2.384659	 28.388700	-0.000001	 0.268569	 6.687740	-2.535639	 1.367723	 12.774170	 6.739748	-6.896951	-10.925690	-7.576243	-91.776120	 78.527400	 180.000000	-8.506298	-1.506689	 4.102780	-14.764260	-2.182028	-30.992650	-1.422201	-18.410540	-2.338357	-4.130354	 21.526190	 0.991307	-5.167926	 0.731697	 3.519349	-1.378229	 35.397820	-2.634230	-8.885480	 1.342982	 4.101325	-6.186618	-17.588270	-5.561465	 89.782100	 78.203890	 180.000000	 24.817790	-4.708906	 1.830837	 8.309052	-1.813024	 26.773480	 38.864280	 49.675300	 1.879172	 5.716295	 19.173350	-3.684826	 5.027458	 0.246833	-9.377971	-2.350882	 35.473990	 5.254307
-0.719560	-0.006247	 1.272487	-176.378600	-6.744927	 0.306616	 2.263628	 5.471354	 178.899600	-6.425251	-11.111670	-1.529683	 5.088977	 70.635030	-12.725590	-2.385833	 28.452760	 0.000004	 0.004339	 5.720412	 178.938900	 3.687757	-12.168410	 0.825016	-4.529411	 70.612950	 9.923468	 2.384659	 28.388700	-0.000001	-0.030622	 7.091606	-2.759811	 1.258944	 13.089790	 7.275689	-7.396902	-11.318070	-8.182600	-91.776180	 78.527360	-180.000000	-8.407082	 1.789302	 8.568371	-15.316700	-2.630330	-40.512000	-2.348787	-19.320600	-2.399041	-4.130354	 21.526190	 0.991307	-5.167926	 0.731697	 3.519349	-1.378229	 35.397820	-2.634230	-9.416739	 1.559171	 4.642778	-6.633099	-18.019930	-6.407678	 89.782040	 78.203850	-180.000000	 26.566790	-1.804684	-2.312203	 9.153672	-2.053722	 36.792650	 48.418050	 48.062960	-5.785184	 5.716295	 19.173350	-3.684826	 5.027458	 0.246833	-9.377971	-2.350882	 35.473990	 5.254307
-0.719607	-0.006318	 1.272215	-176.289100	-6.802920	 0.322650	 2.073075	 5.090448	 178.842700	-6.343361	-12.243020	-1.665389	 4.463289	 71.418050	-12.174680	-2.385833	 28.452760	 0.000004	 0.145817	 5.745615	 178.896800	 3.595541	-12.634900	 0.835875	-4.055796	 71.148790	 9.482624	 2.384659	 28.388700	-0.000001	-0.347559	 7.200300	-2.846387	 1.023270	 12.655350	 7.396425	-7.284761	-10.930560	-8.171618	-91.776250	 78.527420	-179.999900	-8.569333	 4.549291	 11.848790	-15.409640	-3.280845	-47.695510	-2.276856	-19.217530	-2.436115	-4.130354	 21.526190	 0.991307	-5.167926	 0.731697	 3.519349	-1.378229	 35.397820	-2.634230	-9.364169	 1.508108	 4.779511	-6.568700	-17.767860	-6.678891	 89.782060	 78.203850	-180.000000	 25.404930	 0.201234	-5.694920	 9.449501	-2.397967	 44.387620	 49.116440	 44.411830	-5.373467	 5.716295	 19.173350	-3.684826	 5.027458	 0.246833	-9.377971	-2.350882	 35.473990	 5.254307
